<svg xmlns="http://www.w3.org/2000/svg" height="832" preserveAspectRatio="none" style="display: block;" version="1.1" viewBox="0 0 2048 1331" width="1280">
<path d="M 0 0 L 2048 0 L 2048 1331 L 0 1331 L 0 0 z" fill="rgb(255,255,255)" transform="translate(0,0)"></path>
<path d="M 1368.13 491.444 C 1373.03 489.283 1397.09 489.712 1403.06 490.79 C 1406.84 491.202 1410.6 491.745 1414.34 492.417 C 1450.63 500.066 1479.86 516.311 1500.68 548.172 C 1519.19 576.558 1525.78 611.092 1519.02 644.301 C 1512.44 676.692 1492.99 705.022 1465.12 722.796 C 1448.49 733.557 1431.5 739.384 1412.03 742.679 L 1410.21 740.388 L 1405.04 741.329 L 1405.18 743.533 C 1397.95 744.776 1387.21 745.333 1379.96 743.997 C 1377.26 744.134 1374.76 744.369 1372.21 743.453 C 1219.82 728.425 1214.75 514.983 1368.13 491.444 z" fill="rgb(255,255,255)" transform="translate(0,0)"></path>
<path d="M 1372.21 743.453 C 1219.82 728.425 1214.75 514.983 1368.13 491.444 L 1368.95 493.697 C 1342.37 503.133 1321.85 518.48 1310.64 544.907 C 1282.24 611.873 1289.93 720.669 1373.6 741.405 C 1373.18 742.8 1373.31 742.678 1372.21 743.453 z" fill="rgb(13,13,13)" transform="translate(0,0)"></path>
<path d="M 1414.34 492.417 C 1450.63 500.066 1479.86 516.311 1500.68 548.172 C 1519.19 576.558 1525.78 611.092 1519.02 644.301 C 1512.44 676.692 1492.99 705.022 1465.12 722.796 C 1448.49 733.557 1431.5 739.384 1412.03 742.679 L 1410.21 740.388 C 1489.99 714.87 1494.46 608.741 1467.14 543.091 C 1457.15 519.078 1435.59 503.14 1411.69 494.502 L 1414.34 492.417 z" fill="rgb(13,13,13)" transform="translate(0,0)"></path>
<path d="M 1368.13 491.444 C 1373.03 489.283 1397.09 489.712 1403.06 490.79 C 1401.26 491.073 1399.79 491.381 1398 491.765 C 1393.44 491.994 1389.32 491.299 1384.5 491.55 C 1378.83 491.846 1374.38 492.956 1368.95 493.697 L 1368.13 491.444 z" fill="rgb(154,156,154)" transform="translate(0,0)"></path>
<path d="M 1390.69 742.966 C 1395.73 741.821 1399.93 741.941 1405.04 741.329 L 1405.18 743.533 C 1397.95 744.776 1387.21 745.333 1379.96 743.997 C 1381.74 743.828 1390.32 744.025 1390.69 742.966 z" fill="rgb(123,122,121)" transform="translate(0,0)"></path>
<path d="M 1373.6 741.405 C 1381.43 742.404 1382.74 742.883 1390.69 742.966 C 1390.32 744.025 1381.74 743.828 1379.96 743.997 C 1377.26 744.134 1374.76 744.369 1372.21 743.453 C 1373.31 742.678 1373.18 742.8 1373.6 741.405 z" fill="rgb(98,95,97)" transform="translate(0,0)"></path>
<path d="M 1403.06 490.79 C 1406.84 491.202 1410.6 491.745 1414.34 492.417 L 1411.69 494.502 C 1406.88 493.52 1403.09 492.404 1398 491.765 C 1399.79 491.381 1401.26 491.073 1403.06 490.79 z" fill="rgb(66,63,65)" transform="translate(0,0)"></path>
<path d="M 517.924 490.946 C 534.786 490.812 553.86 490.215 570.541 490.614 L 701.96 633.772 C 717.345 650.49 738.386 671.468 752.674 687.869 C 756.705 691.661 754.442 698.107 755.816 703.549 C 756.342 716.118 755.892 731.59 755.863 744.381 C 746.495 737.212 735.488 724.58 727.38 715.713 L 689.115 673.597 C 660.311 642.198 631.325 610.965 602.159 579.902 C 586.04 562.693 567.878 542.353 551.291 526.035 L 549.198 524.972 C 545.457 519.118 524.082 497.346 517.924 490.946 z" fill="rgb(13,13,13)" transform="translate(0,0)"></path>
<path d="M 1015.3 490.502 L 1058.56 490.385 C 1068.57 502.86 1081.92 523.249 1091.67 537.025 C 1109.24 561.551 1127.01 585.926 1145 610.148 C 1154.62 623.153 1243.14 737.31 1243.88 741.319 L 1242.2 741.902 C 1228.03 741.87 1213.52 741.501 1199.33 741.279 C 1182.68 717.82 1013.58 494.994 1013.47 491.296 L 1015.3 490.502 z" fill="rgb(230,57,70)" transform="translate(0,0)"></path>
<path d="M 846.478 490.83 C 861.386 489.201 870.813 490.793 885.188 490.973 L 885.972 492.906 L 879.984 492.726 C 878.451 492.801 878.425 492.975 877.295 492.292 C 872.343 492.234 867.119 492.082 862.192 492.146 L 862.141 569.651 C 862.131 577.882 862.555 601.043 861.638 608.078 L 881.055 607.962 L 873.411 609.925 C 869.582 610.028 865.752 610.084 861.921 610.092 C 862.071 651.794 863.11 698.644 861.708 740.134 C 869.109 739.933 877.239 739.882 884.563 739.295 C 921.64 735.033 944.77 724.148 978.631 708.49 C 973.216 719.788 966.465 730.547 961.338 741.619 L 941.528 741.821 C 932.355 742.542 831.244 742.589 825.912 741.16 C 825.017 657.836 826.739 574.023 825.043 490.709 L 846.478 490.83 z" fill="rgb(13,13,13)" transform="translate(0,0)"></path>
<path d="M 884.563 739.295 C 921.64 735.033 944.77 724.148 978.631 708.49 C 973.216 719.788 966.465 730.547 961.338 741.619 L 941.528 741.821 C 925.169 739.374 895.854 742.536 884.055 740.393 L 884.563 739.295 z" fill="rgb(13,13,13)" transform="translate(0,0)"></path>
<path d="M 861.638 608.078 L 881.055 607.962 L 873.411 609.925 C 869.582 610.028 865.752 610.084 861.921 610.092 C 862.071 651.794 863.11 698.644 861.708 740.134 C 869.109 739.933 877.239 739.882 884.563 739.295 L 884.055 740.393 C 895.854 742.536 925.169 739.374 941.528 741.821 C 932.355 742.542 831.244 742.589 825.912 741.16 C 835.561 740.345 850.794 740.834 860.854 740.86 C 861.131 712.168 861.207 683.475 861.08 654.782 C 861.042 645.926 860.298 615.207 861.638 608.078 z" fill="rgb(123,122,121)" transform="translate(0,0)"></path>
<path d="M 846.478 490.83 C 861.386 489.201 870.813 490.793 885.188 490.973 L 885.972 492.906 L 879.984 492.726 C 878.451 492.801 878.425 492.975 877.295 492.292 C 872.343 492.234 867.119 492.082 862.192 492.146 L 862.141 569.651 C 862.131 577.882 862.555 601.043 861.638 608.078 C 859.646 601.35 861.161 503.485 861.543 491.035 C 856.584 491.126 851.452 490.942 846.478 490.83 z" fill="rgb(154,156,154)" transform="translate(0,0)"></path>
<path d="M 877.295 492.292 C 878.731 492.227 878.708 492.157 879.984 492.726 C 878.451 492.801 878.425 492.975 877.295 492.292 z" fill="rgb(255,255,255)" transform="translate(0,0)"></path>
<path d="M 525.614 768.497 C 540.227 765.984 575.294 767.831 591.302 767.787 L 750.78 767.747 L 1324.18 767.764 L 1451.65 767.739 C 1461.03 767.732 1517.57 766.595 1521.64 769.478 C 1454.59 771.229 1381.52 769.426 1313.97 769.517 L 728.654 769.485 C 708.281 769.488 531.738 770.946 525.614 768.497 z" fill="rgb(154,156,154)" transform="translate(0,0)"></path>
<path d="M 1031.37 793.907 C 1042.99 793.965 1056.36 793.182 1067.72 794.522 C 1085.75 796.65 1089.49 813.828 1079.08 826.943 C 1066.55 834.378 1047.14 831.978 1032.08 832.015 C 1031.98 819.057 1032.05 806.898 1031.37 793.907 z" fill="rgb(13,13,13)" transform="translate(0,0)"></path>
<path d="M 1047.92 804.006 C 1059.99 803.916 1072.98 802.429 1067.22 819.406 C 1059.28 822.756 1056.56 821.957 1047.95 822.007 L 1047.92 804.006 z" fill="rgb(255,255,255)" transform="translate(0,0)"></path>
<path d="M 1134.5 793.185 C 1145.6 792.265 1166.19 791.515 1170.16 805.981 C 1174.17 820.632 1167.02 828.834 1152.83 832.634 C 1140.26 833.55 1121.92 833.858 1117.16 819.479 C 1112.35 804.946 1122.35 797.01 1134.5 793.185 z" fill="rgb(13,13,13)" transform="translate(0,0)"></path>
<path d="M 1138.02 803.746 C 1143.11 800.539 1149.83 802.095 1152.99 807.209 C 1156.15 812.323 1154.54 819.034 1149.39 822.148 C 1144.32 825.223 1137.71 823.631 1134.59 818.582 C 1131.47 813.533 1133 806.912 1138.02 803.746 z" fill="rgb(255,255,255)" transform="translate(0,0)"></path>
<path d="M 891.677 792.396 C 900.472 792.388 911.783 792.384 916.998 801.044 C 919.837 805.758 904.058 803.996 902.396 803.278 C 891.443 797.84 877.49 806.753 902.071 807.021 C 924.132 807.262 926.869 831.855 896.245 833.057 C 886.541 832.87 874.796 833.218 870.259 822.302 C 868.332 817.666 885.14 819.566 886.746 821.196 C 896.665 831.339 915.496 817.161 890.345 817.948 C 881.146 818.236 868.555 813.317 872.013 801.453 C 874.03 794.531 885.637 793.035 891.677 792.396 z" fill="rgb(13,13,13)" transform="translate(0,0)"></path>
<path d="M 973.049 793.654 L 989.315 793.615 C 989.117 803.191 984.302 824.039 999.504 822.352 C 1011.6 821.01 1007.22 805.141 1007.29 793.872 L 1023.77 793.808 C 1024.02 798.222 1023.93 802.815 1023.93 807.25 C 1023.96 820.089 1023.73 830.012 1007.49 831.884 C 972.282 835.943 970.911 823.012 973.049 793.654 z" fill="rgb(13,13,13)" transform="translate(0,0)"></path>
<path d="M 728.872 491.153 L 775.266 490.937 C 756.189 510.555 755.633 534.085 755.995 560.387 L 753.174 561.011 C 750.309 535.701 742.787 512.548 728.872 491.153 z" fill="rgb(13,13,13)" transform="translate(0,0)"></path>
<path d="M 549.91 648.976 C 550.255 674.629 550.51 720.229 566.665 741.078 L 527.922 741.068 C 543.965 722.854 547.498 689.275 548.118 665.553 C 549.261 661.596 549.593 653.4 549.91 648.976 z" fill="rgb(13,13,13)" transform="translate(0,0)"></path>
<path d="M 920.719 793.819 C 928.246 793.808 958.498 793.287 967.501 794.42 C 968.278 795.429 967.62 800.024 967.797 800.566 C 969.379 805.41 957.031 803.881 952.816 803.949 C 952.74 808.132 952.707 812.316 952.719 816.5 C 952.745 821.586 952.683 826.672 952.534 831.756 C 947.032 831.861 941.529 831.914 936.026 831.916 L 936.008 803.588 C 921.193 803.44 920.498 807.502 920.719 793.819 z" fill="rgb(13,13,13)" transform="translate(0,0)"></path>
<path d="M 885.188 490.973 C 905.42 490.997 942.715 489.852 961.567 491.387 L 963.302 491.695 C 962.184 496.032 952.947 512.192 950.389 517.04 C 927.991 502.354 919.014 498.927 892.982 493.592 L 885.972 492.906 L 885.188 490.973 z" fill="rgb(13,13,13)" transform="translate(0,0)"></path>
<path d="M 885.188 490.973 C 905.42 490.997 942.715 489.852 961.567 491.387 C 947.735 494.009 898.239 489.146 892.982 493.592 L 885.972 492.906 L 885.188 490.973 z" fill="rgb(66,63,65)" transform="translate(0,0)"></path>
<path d="M 881.055 607.962 C 902.996 607.184 924.835 604.592 946.348 600.213 C 941.598 609.463 936.774 618.675 931.878 627.849 C 910.803 613.246 898.289 611.447 873.411 609.925 L 881.055 607.962 z" fill="rgb(13,13,13)" transform="translate(0,0)"></path>
<path d="M 1092.35 793.703 C 1097.94 793.641 1103.53 793.624 1109.12 793.652 C 1109.05 806.348 1109.23 819.378 1108.95 832.023 L 1092.65 832.027 C 1092.43 819.253 1092.33 806.478 1092.35 793.703 z" fill="rgb(13,13,13)" transform="translate(0,0)"></path>
<path d="M 1100.67 633.822 C 1100.91 641.147 1034.64 720.686 1027.57 731.793 C 1026.48 733.495 1020.51 740.585 1018.94 742.364 L 1018.53 740.861 C 1022.25 732.302 1091.32 644.566 1100.67 633.822 z" fill="rgb(230,57,70)" transform="translate(0,0)"></path>
<path d="M 549.198 524.972 L 551.291 526.035 C 550.544 546.056 551.426 566.489 550.849 586.475 C 551.328 597.575 551.289 624.058 550.206 635.058 C 550.2 638.098 550.351 646.423 549.91 648.976 C 549.593 653.4 549.261 661.596 548.118 665.553 C 547.547 621.237 548.416 569.592 549.198 524.972 z" fill="rgb(98,95,97)" transform="translate(0,0)"></path>
<path d="M 550.206 635.058 C 549.612 626.915 549.758 593.646 550.849 586.475 C 551.328 597.575 551.289 624.058 550.206 635.058 z" fill="rgb(154,156,154)" transform="translate(0,0)"></path>
<path d="M 753.174 561.011 L 755.995 560.387 C 756.174 606.563 756.98 657.575 755.816 703.549 C 754.442 698.107 756.705 691.661 752.674 687.869 C 755.197 683.726 754.313 575.404 753.174 561.011 z" fill="rgb(66,63,65)" transform="translate(0,0)"></path>
<path d="M 1222.75 489.919 C 1223.47 490.82 1223.15 490.545 1223.27 492.11 C 1212.35 507.238 1198.08 524.356 1186.53 539.592 C 1176.47 552.87 1160.95 573.607 1150.01 585.46 L 1149.14 585.018 C 1149.27 583.282 1215.5 497.38 1222.75 489.919 z" fill="rgb(230,57,70)" transform="translate(0,0)"></path>
<path d="M 1410.21 740.388 L 1412.03 742.679 C 1409.73 742.996 1407.51 743.189 1405.18 743.533 L 1405.04 741.329 L 1410.21 740.388 z" fill="rgb(66,63,65)" transform="translate(0,0)"></path>
<metadata><recraft-signature>{"signed_by": "recraft", "signature_b64": "0nBzJ7pxWxuV7i14T6xnGJ5VTTZn0kRBKbQ7U0wjNA1Tf/jAedmPMuTy9BtYPeWWBcZPli86IXZr4a0MwHsxAQ==", "signing_algo": "Ed25519", "generation_timestamp": 1782782117, "identifier": "54caf3cb-d77c-4ab4-8d14-bc8bab70aae9"}</recraft-signature></metadata></svg>